<?xml version="1.0" encoding="UTF-8"?>
<svg version="1.1" xmlns="http://www.w3.org/2000/svg" width="180" height="178">
<path d="M0 0 C15.50538948 12.43148936 24.76880601 29.12852756 27.35400391 48.78369141 C29.18301496 70.39297569 25.90708 90.54543492 12.54150391 108.09619141 C0.64744431 122.05280469 -13.5326965 130.63811606 -31.64599609 133.78369141 C-53.57639573 135.31632489 -73.15491475 132.40680588 -90.40771484 117.76806641 C-91.14634766 117.11322266 -91.88498047 116.45837891 -92.64599609 115.78369141 C-93.27119141 115.25259766 -93.89638672 114.72150391 -94.54052734 114.17431641 C-106.13699945 103.59875268 -113.71988353 86.37718671 -114.8671875 70.77587891 C-115.64777739 48.666916 -113.30068689 27.49596848 -98.14599609 10.22119141 C-96.66771334 8.72032029 -95.16904751 7.23911176 -93.64599609 5.78369141 C-92.72753906 4.83623047 -92.72753906 4.83623047 -91.79052734 3.86962891 C-68.78426298 -18.40082743 -25.05878642 -18.51718688 0 0 Z M-73.98974609 22.69775391 C-84.8916603 36.42799491 -88.46345627 52.6115624 -86.64599609 69.78369141 C-84.58612266 82.89364146 -79.54874355 94.77649676 -69.64599609 103.78369141 C-59.93806055 110.79081026 -49.91442678 113.50382847 -37.93115234 112.57275391 C-27.62465529 110.8468634 -18.07254552 105.72952262 -11.80224609 97.30712891 C-2.31569816 83.03710976 1.94112327 66.76576424 -1.36865234 49.68603516 C-4.36154527 36.07979744 -9.63372297 24.26502898 -21.27490234 15.89306641 C-39.01992031 4.9974667 -59.50778995 7.05450883 -73.98974609 22.69775391 Z " fill="#0011AA" transform="translate(114.64599609375,12.21630859375)"/>
<path d="M0 0 C4.55452117 4.45330959 6.77934564 8.60388619 7.1015625 15.0234375 C6.41607491 29.62959618 -4.44657546 39.26632217 -14 49 C-6.74 49.33 0.52 49.66 8 50 C8 53.3 8 56.6 8 60 C-5.53 60 -19.06 60 -33 60 C-33 48 -33 48 -31.1640625 45.24609375 C-30.32617188 44.64925781 -29.48828125 44.05242187 -28.625 43.4375 C-19.49020954 36.27219628 -9.18712591 27.17797848 -7.4375 15.125 C-7.6904522 11.97301798 -7.6904522 11.97301798 -9.73046875 10.328125 C-13.63107948 8.04549566 -17.61356379 8.45949127 -22 9 C-25.35161246 10.38214122 -25.35161246 10.38214122 -28 12 C-28.99 12 -29.98 12 -31 12 C-32.17571451 8.32589215 -32.07366746 4.83070817 -32 1 C-22.1604299 -3.43745318 -9.70503106 -6.06564442 0 0 Z " fill="#0011AA" transform="translate(172,117)"/>
</svg>
