<svg width="17" height="14" viewBox="0 0 17 14" fill="none" xmlns="http://www.w3.org/2000/svg">
<path d="M16.1995 5.97119V6.40869C16.1995 6.7915 15.8987 7.06494 15.5432 7.06494H15.3245L14.5862 12.0688C14.5042 12.7251 13.9573 13.1899 13.301 13.1899H3.32056C2.66431 13.1899 2.11743 12.7251 2.0354 12.0688L1.32446 7.06494H1.10571C0.7229 7.06494 0.449463 6.7915 0.449463 6.40869V5.97119C0.449463 5.61572 0.7229 5.31494 1.10571 5.31494H2.93774L5.86353 1.32275C6.13696 0.912598 6.68384 0.830566 7.06665 1.13135C7.47681 1.40479 7.55884 1.95166 7.25806 2.33447L5.0979 5.31494H11.5237L9.36353 2.33447C9.06274 1.95166 9.14478 1.40479 9.55493 1.13135C9.93774 0.830566 10.4846 0.912598 10.7581 1.32275L13.6838 5.31494H15.5432C15.8987 5.31494 16.1995 5.61572 16.1995 5.97119ZM8.98071 10.7837V7.72119C8.98071 7.36572 8.67993 7.06494 8.32446 7.06494C7.94165 7.06494 7.66821 7.36572 7.66821 7.72119V10.7837C7.66821 11.1665 7.94165 11.4399 8.32446 11.4399C8.67993 11.4399 8.98071 11.1665 8.98071 10.7837ZM12.0432 10.7837V7.72119C12.0432 7.36572 11.7424 7.06494 11.387 7.06494C11.0042 7.06494 10.7307 7.36572 10.7307 7.72119V10.7837C10.7307 11.1665 11.0042 11.4399 11.387 11.4399C11.7424 11.4399 12.0432 11.1665 12.0432 10.7837ZM5.91821 10.7837V7.72119C5.91821 7.36572 5.61743 7.06494 5.26196 7.06494C4.87915 7.06494 4.60571 7.36572 4.60571 7.72119V10.7837C4.60571 11.1665 4.87915 11.4399 5.26196 11.4399C5.61743 11.4399 5.91821 11.1665 5.91821 10.7837Z" fill="#333333"/>
</svg>
