<svg version="1.1" xmlns="http://www.w3.org/2000/svg" width="1200" height="800">
<path d="M0 0 C396 0 792 0 1200 0 C1200 264 1200 528 1200 800 C804 800 408 800 0 800 C0 536 0 272 0 0 Z " fill="#003398" transform="translate(0,0)"/>
<path d="M0 0 C1.91823404 2.87735106 2.85650787 5.18243346 3.9453125 8.4375 C4.29980469 9.49710938 4.65429688 10.55671875 5.01953125 11.6484375 C5.38433594 12.75445312 5.74914062 13.86046875 6.125 15 C6.49753906 16.10601562 6.87007812 17.21203125 7.25390625 18.3515625 C7.60582031 19.41117188 7.95773437 20.47078125 8.3203125 21.5625 C8.64273926 22.53316406 8.96516602 23.50382812 9.29736328 24.50390625 C10 27 10 27 10 30 C20.56 30 31.12 30 42 30 C38.72161539 33.27838461 36.28391481 35.68085365 32.609375 38.19140625 C31.81789063 38.74376953 31.02640625 39.29613281 30.2109375 39.86523438 C28.55789181 41.00531113 26.90158114 42.14066706 25.2421875 43.27148438 C24.45585938 43.82255859 23.66953125 44.37363281 22.859375 44.94140625 C21.78381348 45.67919312 21.78381348 45.67919312 20.68652344 46.43188477 C18.63818451 48.33641298 18.19933978 49.21769233 18 52 C18.59326236 54.80338839 18.59326236 54.80338839 19.65234375 57.7890625 C20.01650391 58.89507812 20.38066406 60.00109375 20.75585938 61.140625 C21.14580078 62.29046875 21.53574219 63.4403125 21.9375 64.625 C22.69894934 66.90807681 23.45818104 69.19189483 24.21484375 71.4765625 C24.72712524 72.9937085 24.72712524 72.9937085 25.24975586 74.54150391 C26 77 26 77 26 79 C23.14986742 77.65089758 20.6270221 76.12248024 18.06640625 74.28515625 C16.9690918 73.50301758 16.9690918 73.50301758 15.84960938 72.70507812 C15.09486328 72.16302734 14.34011719 71.62097656 13.5625 71.0625 C6.93658159 66.29567123 6.93658159 66.29567123 0 62 C-0.50861572 62.37286133 -1.01723145 62.74572266 -1.54125977 63.12988281 C-3.87894861 64.840348 -6.22067854 66.54519778 -8.5625 68.25 C-9.36236328 68.83652344 -10.16222656 69.42304688 -10.98632812 70.02734375 C-15.52782358 73.32687922 -20.06444116 76.32353588 -25 79 C-23.77347708 71.39555789 -21.55288209 64.38405375 -18.94482422 57.15869141 C-18.68072754 56.4063623 -18.41663086 55.6540332 -18.14453125 54.87890625 C-17.77871948 53.86679077 -17.77871948 53.86679077 -17.40551758 52.83422852 C-16.78721941 50.7824006 -16.78721941 50.7824006 -18 48 C-20.11458761 46.31774115 -22.21295186 44.77247034 -24.4375 43.25 C-25.06479004 42.81115479 -25.69208008 42.37230957 -26.33837891 41.92016602 C-28.22024925 40.60554311 -30.1088686 39.30125571 -32 38 C-33.95950474 36.64752894 -35.91802303 35.29362608 -37.875 33.9375 C-38.67679688 33.38964844 -39.47859375 32.84179688 -40.3046875 32.27734375 C-40.86414063 31.85582031 -41.42359375 31.43429688 -42 31 C-42 30.67 -42 30.34 -42 30 C-31.11 30 -20.22 30 -9 30 C-8.67 27.69 -8.34 25.38 -8 23 C-7.43923819 21.07810312 -6.82367524 19.17127805 -6.15234375 17.28515625 C-5.79462891 16.27001953 -5.43691406 15.25488281 -5.06835938 14.20898438 C-4.69517578 13.17064453 -4.32199219 12.13230469 -3.9375 11.0625 C-3.56044922 9.99708984 -3.18339844 8.93167969 -2.79492188 7.83398438 C-1.86907983 5.22053151 -0.93730537 2.60935879 0 0 Z " fill="#F7C704" transform="translate(733,125)"/>
<path d="M0 0 C2.36794003 2.36794003 2.88528125 4.1393237 3.9453125 7.3046875 C4.29980469 8.36300781 4.65429688 9.42132813 5.01953125 10.51171875 C5.38433594 11.62160156 5.74914062 12.73148438 6.125 13.875 C6.49753906 14.97714844 6.87007813 16.07929688 7.25390625 17.21484375 C7.60582031 18.27574219 7.95773437 19.33664063 8.3203125 20.4296875 C8.80395264 21.88737549 8.80395264 21.88737549 9.29736328 23.37451172 C10 26 10 26 10 30 C20.89 30 31.78 30 43 30 C38.50052029 34.49947971 38.50052029 34.49947971 35.79296875 36.40234375 C35.20580078 36.81806641 34.61863281 37.23378906 34.01367188 37.66210938 C33.41103516 38.08298828 32.80839844 38.50386719 32.1875 38.9375 C31.59646484 39.35451172 31.00542969 39.77152344 30.39648438 40.20117188 C29.20719587 41.04028819 28.0169351 41.87802828 26.82568359 42.71435547 C23.87258205 44.79392657 20.93703658 46.89781889 18 49 C19.32947731 54.10173407 20.71414463 59.17395491 22.34765625 64.1875 C22.57880127 64.90099609 22.80994629 65.61449219 23.0480957 66.34960938 C23.51174281 67.77006285 23.98280725 69.18811912 24.46166992 70.60351562 C26.11026046 75.66921862 26.11026046 75.66921862 25 79 C24.10539062 78.35933594 23.21078125 77.71867187 22.2890625 77.05859375 C15.21962152 72.0000334 8.13549151 66.96524985 1 62 C-5.93616273 66.19783796 -12.44137217 70.72968849 -18.75854492 75.79833984 C-22.79566347 79 -22.79566347 79 -25 79 C-23.13570365 70.86075494 -20.73224428 63.08894974 -17.890625 55.25 C-16.99435471 51.97939963 -16.77170994 51.02847846 -18 48 C-19.80561794 46.23724072 -19.80561794 46.23724072 -22.11328125 44.6875 C-22.94923828 44.08679688 -23.78519531 43.48609375 -24.64648438 42.8671875 C-25.52626953 42.25101563 -26.40605469 41.63484375 -27.3125 41 C-29.03998425 39.7739607 -30.76531967 38.54488695 -32.48828125 37.3125 C-33.64130737 36.50232422 -33.64130737 36.50232422 -34.81762695 35.67578125 C-37 34 -37 34 -41 30 C-30.44 30 -19.88 30 -9 30 C-8.34 27.03 -7.68 24.06 -7 21 C-6.4590329 19.16523765 -5.88857671 17.33858698 -5.2734375 15.52734375 C-4.9640625 14.60888672 -4.6546875 13.69042969 -4.3359375 12.74414062 C-3.86027344 11.35485352 -3.86027344 11.35485352 -3.375 9.9375 C-3.05015625 8.97650391 -2.7253125 8.01550781 -2.390625 7.02539062 C-1.59788808 4.68215356 -0.80095424 2.34043824 0 0 Z " fill="#F7C704" transform="translate(466,125)"/>
<path d="M0 0 C2.36794003 2.36794003 2.88528125 4.1393237 3.9453125 7.3046875 C4.29980469 8.36300781 4.65429688 9.42132813 5.01953125 10.51171875 C5.38433594 11.62160156 5.74914062 12.73148437 6.125 13.875 C6.49753906 14.97714844 6.87007812 16.07929688 7.25390625 17.21484375 C7.60582031 18.27574219 7.95773437 19.33664062 8.3203125 20.4296875 C8.80395264 21.88737549 8.80395264 21.88737549 9.29736328 23.37451172 C10 26 10 26 10 30 C20.56 30 31.12 30 42 30 C38.71569976 33.28430024 36.01094571 35.8899919 32.35546875 38.55078125 C31.51435547 39.16630859 30.67324219 39.78183594 29.80664062 40.41601562 C28.94232422 41.04185547 28.07800781 41.66769531 27.1875 42.3125 C26.30384766 42.95767578 25.42019531 43.60285156 24.50976562 44.26757812 C22.3426584 45.84898069 20.17270897 47.42630743 18 49 C19.93248081 56.27799926 22.03996666 63.45492927 24.45703125 70.5859375 C26.10942118 75.67173645 26.10942118 75.67173645 25 79 C24.49138428 78.62713867 23.98276855 78.25427734 23.45874023 77.87011719 C21.12105139 76.159652 18.77932146 74.45480222 16.4375 72.75 C15.63763672 72.16347656 14.83777344 71.57695312 14.01367188 70.97265625 C9.47217642 67.67312078 4.93555884 64.67646412 0 62 C-3.08354148 64.27055081 -6.16679656 66.54149021 -9.25 68.8125 C-10.12269531 69.45509766 -10.99539063 70.09769531 -11.89453125 70.75976562 C-12.73886719 71.38173828 -13.58320312 72.00371094 -14.453125 72.64453125 C-15.22817383 73.21534424 -16.00322266 73.78615723 -16.80175781 74.37426758 C-18.27242028 75.461911 -19.72515494 76.57420399 -21.15917969 77.7097168 C-23 79 -23 79 -25 79 C-22.60471932 68.47337177 -19.31780699 58.26480091 -16 48 C-16.65871094 47.79117188 -17.31742188 47.58234375 -17.99609375 47.3671875 C-22.11864611 45.49086328 -25.47575829 42.86683555 -29.0625 40.125 C-29.76955078 39.59519531 -30.47660156 39.06539063 -31.20507812 38.51953125 C-34.76754906 35.82342648 -37.81034415 33.18965585 -41 30 C-30.44 30 -19.88 30 -9 30 C-8.34 27.03 -7.68 24.06 -7 21 C-6.4590329 19.16523765 -5.88857671 17.33858698 -5.2734375 15.52734375 C-4.9640625 14.60888672 -4.6546875 13.69042969 -4.3359375 12.74414062 C-3.86027344 11.35485352 -3.86027344 11.35485352 -3.375 9.9375 C-3.05015625 8.97650391 -2.7253125 8.01550781 -2.390625 7.02539062 C-1.59788808 4.68215356 -0.80095424 2.34043824 0 0 Z " fill="#F8C803" transform="translate(866,356)"/>
<path d="M0 0 C1.91823404 2.87735106 2.85650787 5.18243346 3.9453125 8.4375 C4.29980469 9.49710937 4.65429688 10.55671875 5.01953125 11.6484375 C5.38433594 12.75445312 5.74914062 13.86046875 6.125 15 C6.49753906 16.10601562 6.87007813 17.21203125 7.25390625 18.3515625 C7.60582031 19.41117187 7.95773437 20.47078125 8.3203125 21.5625 C8.64273926 22.53316406 8.96516602 23.50382812 9.29736328 24.50390625 C10 27 10 27 10 30 C20.56 30 31.12 30 42 30 C38.72161539 33.27838461 36.28391481 35.68085365 32.609375 38.19140625 C31.81789063 38.74376953 31.02640625 39.29613281 30.2109375 39.86523438 C28.55789181 41.00531113 26.90158114 42.14066706 25.2421875 43.27148438 C24.45585937 43.82255859 23.66953125 44.37363281 22.859375 44.94140625 C21.78381348 45.67919312 21.78381348 45.67919312 20.68652344 46.43188477 C18.63818451 48.33641298 18.19933978 49.21769233 18 52 C18.59326236 54.80338839 18.59326236 54.80338839 19.65234375 57.7890625 C20.01650391 58.89507812 20.38066406 60.00109375 20.75585938 61.140625 C21.14580078 62.29046875 21.53574219 63.4403125 21.9375 64.625 C22.69894934 66.90807681 23.45818104 69.19189483 24.21484375 71.4765625 C24.72712524 72.9937085 24.72712524 72.9937085 25.24975586 74.54150391 C26 77 26 77 26 79 C22.05913118 77.25392198 18.71101091 74.71680714 15.25 72.1875 C10.27477778 68.58787945 5.2693992 65.16163952 0 62 C-1.34191406 62.96099609 -1.34191406 62.96099609 -2.7109375 63.94140625 C-9.78037848 68.9999666 -16.86450849 74.03475015 -24 79 C-25.24305091 75.27084727 -24.57078875 74.01804669 -23.3125 70.34375 C-22.94382812 69.23902344 -22.57515625 68.13429688 -22.1953125 66.99609375 C-21.3984375 64.66536458 -20.6015625 62.33463542 -19.8046875 60.00390625 C-19.43601562 58.89917969 -19.06734375 57.79445313 -18.6875 56.65625 C-18.34074219 55.64369141 -17.99398438 54.63113281 -17.63671875 53.58789062 C-16.7336205 50.90960072 -16.7336205 50.90960072 -18 48 C-19.71515743 46.4690926 -19.71515743 46.4690926 -21.859375 45.0390625 C-22.64570313 44.48476563 -23.43203125 43.93046875 -24.2421875 43.359375 C-25.48355469 42.50085938 -25.48355469 42.50085938 -26.75 41.625 C-28.37292484 40.49668082 -29.99279843 39.36395839 -31.609375 38.2265625 C-32.33092773 37.72721191 -33.05248047 37.22786133 -33.79589844 36.71337891 C-36.38740946 34.69884364 -38.67897849 32.32102151 -41 30 C-30.44 30 -19.88 30 -9 30 C-8.67 27.69 -8.34 25.38 -8 23 C-7.43923819 21.07810312 -6.82367524 19.17127805 -6.15234375 17.28515625 C-5.79462891 16.27001953 -5.43691406 15.25488281 -5.06835938 14.20898438 C-4.69517578 13.17064453 -4.32199219 12.13230469 -3.9375 11.0625 C-3.56044922 9.99708984 -3.18339844 8.93167969 -2.79492188 7.83398438 C-1.86907983 5.22053151 -0.93730537 2.60935879 0 0 Z " fill="#F8C803" transform="translate(333,356)"/>
<path d="M0 0 C1.91823404 2.87735106 2.85650787 5.18243346 3.9453125 8.4375 C4.29980469 9.49710938 4.65429688 10.55671875 5.01953125 11.6484375 C5.38433594 12.75445313 5.74914062 13.86046875 6.125 15 C6.49753906 16.10601563 6.87007812 17.21203125 7.25390625 18.3515625 C7.60582031 19.41117188 7.95773437 20.47078125 8.3203125 21.5625 C8.64273926 22.53316406 8.96516602 23.50382813 9.29736328 24.50390625 C10 27 10 27 10 30 C20.56 30 31.12 30 42 30 C38.72161539 33.27838461 36.28391481 35.68085365 32.609375 38.19140625 C31.81789063 38.74376953 31.02640625 39.29613281 30.2109375 39.86523438 C28.55789181 41.00531113 26.90158114 42.14066706 25.2421875 43.27148438 C24.45585938 43.82255859 23.66953125 44.37363281 22.859375 44.94140625 C21.78381348 45.67919312 21.78381348 45.67919312 20.68652344 46.43188477 C18.63818451 48.33641298 18.19933978 49.21769233 18 52 C18.59326236 54.80338839 18.59326236 54.80338839 19.65234375 57.7890625 C20.01650391 58.89507813 20.38066406 60.00109375 20.75585938 61.140625 C21.14580078 62.29046875 21.53574219 63.4403125 21.9375 64.625 C22.69894934 66.90807681 23.45818104 69.19189483 24.21484375 71.4765625 C24.72712524 72.9937085 24.72712524 72.9937085 25.24975586 74.54150391 C26 77 26 77 26 79 C23.0243338 77.60578336 20.45623543 75.97913885 17.8125 74.03125 C17.03132812 73.46019531 16.25015625 72.88914062 15.4453125 72.30078125 C13.81510417 71.10026042 12.18489583 69.89973958 10.5546875 68.69921875 C9.77351562 68.12816406 8.99234375 67.55710937 8.1875 66.96875 C7.12595703 66.18661133 7.12595703 66.18661133 6.04296875 65.38867188 C4.08869325 64.06028767 2.13719485 63.00135984 0 62 C-2.6877381 63.89549595 -5.37514602 65.79145951 -8.0625 67.6875 C-8.81466797 68.21794922 -9.56683594 68.74839844 -10.34179688 69.29492188 C-14.90530763 72.5150615 -19.45836225 75.74908002 -24 79 C-25.35159915 75.30762731 -24.61924228 73.10301585 -23.3125 69.46484375 C-22.94382812 68.40845703 -22.57515625 67.35207031 -22.1953125 66.26367188 C-21.60363281 64.6172168 -21.60363281 64.6172168 -21 62.9375 C-20.2209576 60.76203683 -19.44972803 58.5837551 -18.6875 56.40234375 C-18.34074219 55.43804443 -17.99398437 54.47374512 -17.63671875 53.48022461 C-16.73398914 50.89438136 -16.73398914 50.89438136 -18 48 C-19.71515743 46.4690926 -19.71515743 46.4690926 -21.859375 45.0390625 C-22.64570312 44.48476563 -23.43203125 43.93046875 -24.2421875 43.359375 C-25.48355469 42.50085938 -25.48355469 42.50085938 -26.75 41.625 C-28.37292484 40.49668082 -29.99279843 39.36395839 -31.609375 38.2265625 C-32.33092773 37.72721191 -33.05248047 37.22786133 -33.79589844 36.71337891 C-36.38740946 34.69884364 -38.67897849 32.32102151 -41 30 C-30.44 30 -19.88 30 -9 30 C-8.67 27.69 -8.34 25.38 -8 23 C-7.43923819 21.07810312 -6.82367524 19.17127805 -6.15234375 17.28515625 C-5.79462891 16.27001953 -5.43691406 15.25488281 -5.06835938 14.20898438 C-4.69517578 13.17064453 -4.32199219 12.13230469 -3.9375 11.0625 C-3.56044922 9.99708984 -3.18339844 8.93167969 -2.79492188 7.83398438 C-1.86907983 5.22053151 -0.93730537 2.60935879 0 0 Z " fill="#F8C803" transform="translate(733,587)"/>
<path d="M0 0 C2.36794003 2.36794003 2.88528125 4.1393237 3.9453125 7.3046875 C4.29980469 8.36300781 4.65429688 9.42132812 5.01953125 10.51171875 C5.38433594 11.62160156 5.74914062 12.73148438 6.125 13.875 C6.49753906 14.97714844 6.87007813 16.07929687 7.25390625 17.21484375 C7.60582031 18.27574219 7.95773437 19.33664062 8.3203125 20.4296875 C8.80395264 21.88737549 8.80395264 21.88737549 9.29736328 23.37451172 C10 26 10 26 10 30 C20.56 30 31.12 30 42 30 C38.71569976 33.28430024 36.01094571 35.8899919 32.35546875 38.55078125 C31.51435547 39.16630859 30.67324219 39.78183594 29.80664062 40.41601562 C28.94232422 41.04185547 28.07800781 41.66769531 27.1875 42.3125 C26.30384766 42.95767578 25.42019531 43.60285156 24.50976562 44.26757812 C22.3426584 45.84898069 20.17270897 47.42630743 18 49 C19.86265609 56.08085624 21.92171806 62.98295695 24.45703125 69.85351562 C25.69297209 73.3800175 26.0994926 75.44887077 25 79 C24.49138428 78.62713867 23.98276855 78.25427734 23.45874023 77.87011719 C21.12105139 76.159652 18.77932146 74.45480222 16.4375 72.75 C15.63763672 72.16347656 14.83777344 71.57695313 14.01367188 70.97265625 C9.47217642 67.67312078 4.93555884 64.67646412 0 62 C-2.89738185 64.08118628 -5.79262293 66.16533139 -8.6875 68.25 C-9.50412109 68.83652344 -10.32074219 69.42304687 -11.16210938 70.02734375 C-14.49317489 72.4278687 -17.77941639 74.81933707 -20.95703125 77.421875 C-23 79 -23 79 -25 79 C-22.60471932 68.47337177 -19.31780699 58.26480091 -16 48 C-16.69351562 47.76925781 -17.38703125 47.53851562 -18.1015625 47.30078125 C-21.60028754 45.73059872 -24.40329573 43.56547282 -27.375 41.1875 C-28.52136425 40.28547741 -29.66849354 39.3844262 -30.81640625 38.484375 C-31.36312988 38.05447266 -31.90985352 37.62457031 -32.47314453 37.18164062 C-34.37886479 35.70679476 -36.33418437 34.31301598 -38.3125 32.9375 C-39.199375 32.298125 -40.08625 31.65875 -41 31 C-41 30.67 -41 30.34 -41 30 C-30.44 30 -19.88 30 -9 30 C-8.34 27.03 -7.68 24.06 -7 21 C-6.4590329 19.16523765 -5.88857671 17.33858698 -5.2734375 15.52734375 C-4.9640625 14.60888672 -4.6546875 13.69042969 -4.3359375 12.74414062 C-3.86027344 11.35485352 -3.86027344 11.35485352 -3.375 9.9375 C-3.05015625 8.97650391 -2.7253125 8.01550781 -2.390625 7.02539062 C-1.59788808 4.68215356 -0.80095424 2.34043824 0 0 Z " fill="#F8C803" transform="translate(466,587)"/>
<path d="M0 0 C0.66 0 1.32 0 2 0 C3.28545488 3.94981082 4.56710386 7.90083381 5.84521484 11.85302734 C6.28068891 13.19776866 6.71720755 14.54217217 7.15478516 15.88623047 C7.78301527 17.81650666 8.40749754 19.74796046 9.03125 21.6796875 C9.59682617 23.42354736 9.59682617 23.42354736 10.17382812 25.20263672 C11 28 11 28 11 30 C21.56 30 32.12 30 43 30 C39.98240149 32.4140788 36.97705177 34.79967683 33.8984375 37.12890625 C33.16109375 37.68900391 32.42375 38.24910156 31.6640625 38.82617188 C30.13118031 39.98891272 28.59731645 41.15036045 27.0625 42.31054688 C26.32773437 42.86935547 25.59296875 43.42816406 24.8359375 44.00390625 C24.17126465 44.50736572 23.5065918 45.0108252 22.82177734 45.52954102 C21.09083222 46.92668421 19.53931885 48.39656772 18 50 C18.27263672 50.80743652 18.54527344 51.61487305 18.82617188 52.44677734 C19.83492356 55.43897624 20.84098317 58.43206263 21.84521484 61.42578125 C22.28065756 62.72204323 22.71717592 64.01794438 23.15478516 65.31347656 C23.78309327 67.17418041 24.40723259 69.03629031 25.03125 70.8984375 C25.40830078 72.01911621 25.78535156 73.13979492 26.17382812 74.29443359 C27 77 27 77 27 79 C24.02864119 77.60955913 21.47841072 75.98716532 18.84765625 74.03125 C18.07099609 73.46019531 17.29433594 72.88914062 16.49414062 72.30078125 C14.87556851 71.10212784 13.25837453 69.90161123 11.64257812 68.69921875 C10.86462891 68.12816406 10.08667969 67.55710937 9.28515625 66.96875 C8.58269775 66.44732422 7.88023926 65.92589844 7.15649414 65.38867188 C4.76443774 63.84830996 2.76050712 62.72688947 0 62 C-2.23951532 62.84004174 -2.23951532 62.84004174 -4.25 64.5078125 C-5.0234375 65.08273437 -5.796875 65.65765625 -6.59375 66.25 C-7.3878125 66.86875 -8.181875 67.4875 -9 68.125 C-10.19109375 69.01832031 -10.19109375 69.01832031 -11.40625 69.9296875 C-14.64086072 72.36642758 -17.8166672 74.84836037 -20.9375 77.4296875 C-23 79 -23 79 -25 79 C-23.0338474 71.31122439 -20.63364993 63.85851515 -17.98828125 56.3828125 C-17.06613879 53.22638811 -16.61730363 51.23120023 -17 48 C-18.53768661 46.19671698 -18.53768661 46.19671698 -20.7265625 44.80859375 C-21.51160156 44.25623047 -22.29664063 43.70386719 -23.10546875 43.13476562 C-23.93691406 42.57466797 -24.76835938 42.01457031 -25.625 41.4375 C-26.43324219 40.87353516 -27.24148438 40.30957031 -28.07421875 39.72851562 C-31.54314771 37.31718696 -35.04666489 34.96661345 -38.5859375 32.66015625 C-39.38257813 32.11230469 -40.17921875 31.56445312 -41 31 C-41 30.67 -41 30.34 -41 30 C-30.44 30 -19.88 30 -9 30 C-7.515 24.555 -7.515 24.555 -6 19 C-4.95536006 15.59665966 -3.8993927 12.20199501 -2.8125 8.8125 C-2.53986328 7.95591797 -2.26722656 7.09933594 -1.98632812 6.21679688 C-1.32623941 4.14388671 -0.66342023 2.07184634 0 0 Z " fill="#FAC902" transform="translate(599,623)"/>
<path d="M0 0 C0.66 0 1.32 0 2 0 C3.28545488 3.94981082 4.56710386 7.90083381 5.84521484 11.85302734 C6.28068891 13.19776866 6.71720755 14.54217217 7.15478516 15.88623047 C7.78301527 17.81650666 8.40749754 19.74796046 9.03125 21.6796875 C9.59682617 23.42354736 9.59682617 23.42354736 10.17382812 25.20263672 C11 28 11 28 11 30 C21.56 30 32.12 30 43 30 C40.06584161 32.34732671 37.16902256 34.64990965 34.15234375 36.875 C33.46462891 37.38546875 32.77691406 37.8959375 32.06835938 38.421875 C30.64526262 39.4758275 29.22077612 40.52790601 27.79492188 41.578125 C27.10849609 42.08859375 26.42207031 42.5990625 25.71484375 43.125 C24.78853149 43.80949219 24.78853149 43.80949219 23.84350586 44.5078125 C21.74485882 46.20651873 19.87987724 48.06430539 18 50 C18.27263672 50.80743652 18.54527344 51.61487305 18.82617188 52.44677734 C19.83492356 55.43897624 20.84098317 58.43206263 21.84521484 61.42578125 C22.28065756 62.72204323 22.71717592 64.01794438 23.15478516 65.31347656 C23.78309327 67.17418041 24.40723259 69.03629031 25.03125 70.8984375 C25.40830078 72.01911621 25.78535156 73.13979492 26.17382812 74.29443359 C27 77 27 77 27 79 C24.02864119 77.60955913 21.47841072 75.98716532 18.84765625 74.03125 C18.07099609 73.46019531 17.29433594 72.88914062 16.49414062 72.30078125 C14.87556851 71.10212784 13.25837453 69.90161123 11.64257812 68.69921875 C10.86462891 68.12816406 10.08667969 67.55710937 9.28515625 66.96875 C8.58269775 66.44732422 7.88023926 65.92589844 7.15649414 65.38867188 C4.76443774 63.84830996 2.76050712 62.72688947 0 62 C-2.23951532 62.84004174 -2.23951532 62.84004174 -4.25 64.5078125 C-5.0234375 65.08273437 -5.796875 65.65765625 -6.59375 66.25 C-7.3878125 66.86875 -8.181875 67.4875 -9 68.125 C-10.19109375 69.01832031 -10.19109375 69.01832031 -11.40625 69.9296875 C-14.64086072 72.36642758 -17.8166672 74.84836037 -20.9375 77.4296875 C-23 79 -23 79 -25 79 C-23.67451522 73.91358687 -22.28866637 68.85475196 -20.6875 63.84765625 C-20.4608667 63.13867188 -20.2342334 62.4296875 -20.00073242 61.69921875 C-19.54766866 60.2926157 -19.08962321 58.88760593 -18.6262207 57.484375 C-17.53869452 54.1081743 -17 51.59171126 -17 48 C-18.56208578 46.31333747 -18.56208578 46.31333747 -20.7265625 44.90625 C-21.51160156 44.35066406 -22.29664063 43.79507813 -23.10546875 43.22265625 C-23.93691406 42.65417969 -24.76835938 42.08570313 -25.625 41.5 C-26.43324219 40.93152344 -27.24148438 40.36304688 -28.07421875 39.77734375 C-31.54242111 37.34678242 -35.03738386 34.96771234 -38.5859375 32.65625 C-39.38257813 32.1096875 -40.17921875 31.563125 -41 31 C-41 30.67 -41 30.34 -41 30 C-30.44 30 -19.88 30 -9 30 C-7.515 24.555 -7.515 24.555 -6 19 C-4.95536006 15.59665966 -3.8993927 12.20199501 -2.8125 8.8125 C-2.53986328 7.95591797 -2.26722656 7.09933594 -1.98632812 6.21679688 C-1.32623941 4.14388671 -0.66342023 2.07184634 0 0 Z " fill="#FAC902" transform="translate(830,223)"/>
<path d="M0 0 C0.66 0 1.32 0 2 0 C3.28545488 3.94981082 4.56710386 7.90083381 5.84521484 11.85302734 C6.28068891 13.19776866 6.71720755 14.54217217 7.15478516 15.88623047 C7.78301527 17.81650666 8.40749754 19.74796046 9.03125 21.6796875 C9.59682617 23.42354736 9.59682617 23.42354736 10.17382812 25.20263672 C11 28 11 28 11 30 C21.56 30 32.12 30 43 30 C40.25915964 32.74084036 38.08251604 34.79151284 34.99609375 36.9453125 C34.25552734 37.46480469 33.51496094 37.98429687 32.75195312 38.51953125 C31.98818359 39.04933594 31.22441406 39.57914062 30.4375 40.125 C29.66986328 40.66253906 28.90222656 41.20007813 28.11132812 41.75390625 C25.09205101 43.86503114 22.06551601 45.95632266 19 48 C19.63633505 54.40816283 21.54145023 60.21733407 23.5625 66.3125 C24.21216728 68.28692913 24.85942922 70.26215187 25.50390625 72.23828125 C25.79080322 73.10493408 26.0777002 73.97158691 26.37329102 74.86450195 C27 77 27 77 27 79 C24.02864119 77.60955913 21.47841072 75.98716532 18.84765625 74.03125 C18.07099609 73.46019531 17.29433594 72.88914062 16.49414062 72.30078125 C14.87556851 71.10212784 13.25837453 69.90161123 11.64257812 68.69921875 C10.86462891 68.12816406 10.08667969 67.55710937 9.28515625 66.96875 C8.58269775 66.44732422 7.88023926 65.92589844 7.15649414 65.38867188 C4.76443774 63.84830996 2.76050712 62.72688947 0 62 C-2.23951532 62.84004174 -2.23951532 62.84004174 -4.25 64.5078125 C-5.0234375 65.08273437 -5.796875 65.65765625 -6.59375 66.25 C-7.3878125 66.86875 -8.181875 67.4875 -9 68.125 C-10.19109375 69.01832031 -10.19109375 69.01832031 -11.40625 69.9296875 C-14.64086072 72.36642758 -17.8166672 74.84836037 -20.9375 77.4296875 C-23 79 -23 79 -25 79 C-22.45115129 68.41620917 -18.6653736 58.23507071 -15 48 C-15.73065674 47.73574219 -16.46131348 47.47148437 -17.21411133 47.19921875 C-20.00816933 45.99648341 -22.13923617 44.62429081 -24.57421875 42.8125 C-25.82235352 41.88824219 -25.82235352 41.88824219 -27.09570312 40.9453125 C-28.37864258 39.98238281 -28.37864258 39.98238281 -29.6875 39 C-30.55439453 38.35804688 -31.42128906 37.71609375 -32.31445312 37.0546875 C-38.68422302 32.31577698 -38.68422302 32.31577698 -41 30 C-30.44 30 -19.88 30 -9 30 C-7.515 24.555 -7.515 24.555 -6 19 C-5.15731677 16.53040231 -4.28693229 14.06987367 -3.375 11.625 C-1.93294458 7.75329968 -0.6873329 4.07817519 0 0 Z " fill="#FAC902" transform="translate(368,223)"/>
<path d="M0 0 C0.66 0 1.32 0 2 0 C3.28545488 3.94981082 4.56710386 7.90083381 5.84521484 11.85302734 C6.28068891 13.19776866 6.71720755 14.54217217 7.15478516 15.88623047 C7.78301527 17.81650666 8.40749754 19.74796046 9.03125 21.6796875 C9.59682617 23.42354736 9.59682617 23.42354736 10.17382812 25.20263672 C11 28 11 28 11 30 C21.23 30 31.46 30 42 30 C36.36773137 35.63226863 36.36773137 35.63226863 32.8984375 38.078125 C32.16109375 38.59890625 31.42375 39.1196875 30.6640625 39.65625 C29.90867187 40.1821875 29.15328125 40.708125 28.375 41.25 C27.2303125 42.06210937 27.2303125 42.06210937 26.0625 42.890625 C20.39360119 46.8687996 20.39360119 46.8687996 17 48 C17.21914063 48.58523438 17.43828125 49.17046875 17.6640625 49.7734375 C19.96634212 56.00643841 22.16477995 62.27480821 24.3125 68.5625 C24.59109863 69.36026855 24.86969727 70.15803711 25.15673828 70.97998047 C25.82908566 72.96799427 26.42151732 74.98267314 27 77 C26.67 77.66 26.34 78.32 26 79 C23.10261815 76.91881372 20.20737707 74.83466861 17.3125 72.75 C16.49587891 72.16347656 15.67925781 71.57695313 14.83789062 70.97265625 C14.04189453 70.39902344 13.24589844 69.82539062 12.42578125 69.234375 C11.65186035 68.67943359 10.87793945 68.12449219 10.08056641 67.55273438 C8 66 8 66 5.23046875 63.515625 C3.1186503 61.73364303 3.1186503 61.73364303 0.6262207 62.22802734 C-2.18239818 63.0536156 -3.91362432 64.08960484 -6.25 65.8359375 C-7.0234375 66.40570312 -7.796875 66.97546875 -8.59375 67.5625 C-9.3878125 68.160625 -10.181875 68.75875 -11 69.375 C-12.58202263 70.55124409 -14.1653208 71.72577489 -15.75 72.8984375 C-16.48605469 73.44338867 -17.22210937 73.98833984 -17.98046875 74.54980469 C-20.24446747 76.17554845 -22.56864711 77.63726592 -25 79 C-22.71990777 68.61958012 -19.77839091 57.55678182 -15 48 C-15.57814453 47.72526855 -16.15628906 47.45053711 -16.75195312 47.16748047 C-20.57384867 45.18265157 -23.99039761 42.60972699 -27.5 40.125 C-28.25925781 39.59519531 -29.01851562 39.06539062 -29.80078125 38.51953125 C-30.90486328 37.74029297 -30.90486328 37.74029297 -32.03125 36.9453125 C-32.69705078 36.47625488 -33.36285156 36.00719727 -34.04882812 35.52392578 C-36 34 -36 34 -40 30 C-29.77 30 -19.54 30 -9 30 C-8.34 27.03 -7.68 24.06 -7 21 C-6.4590329 19.16523765 -5.88857671 17.33858698 -5.2734375 15.52734375 C-4.9640625 14.60888672 -4.6546875 13.69042969 -4.3359375 12.74414062 C-3.86027344 11.35485352 -3.86027344 11.35485352 -3.375 9.9375 C-3.05015625 8.97650391 -2.7253125 8.01550781 -2.390625 7.02539062 C-1.59788808 4.68215356 -0.80095424 2.34043824 0 0 Z " fill="#F9C803" transform="translate(830,490)"/>
<path d="M0 0 C2.70825941 5.09962688 4.30910137 10.5987626 6.125 16.0625 C6.49753906 17.16400391 6.87007813 18.26550781 7.25390625 19.40039062 C7.60582031 20.45548828 7.95773437 21.51058594 8.3203125 22.59765625 C8.80395264 24.04410522 8.80395264 24.04410522 9.29736328 25.51977539 C10 28 10 28 10 31 C20.23 31 30.46 31 41 31 C35.37631184 36.62368816 35.37631184 36.62368816 32.58984375 38.5703125 C31.99236328 38.99183594 31.39488281 39.41335938 30.77929688 39.84765625 C30.17150391 40.26917969 29.56371094 40.69070313 28.9375 41.125 C27.7171898 41.98140315 26.49713102 42.83816469 25.27734375 43.6953125 C24.42438721 44.28940918 24.42438721 44.28940918 23.55419922 44.89550781 C22.24027277 45.82925008 20.96134311 46.81194498 19.69140625 47.8046875 C18 49 18 49 16 49 C16.38671875 50.00417969 16.7734375 51.00835938 17.171875 52.04296875 C24.37494706 70.89459611 24.37494706 70.89459611 26 78 C25.67 78.66 25.34 79.32 25 80 C21.91645852 77.72944919 18.83320344 75.45850979 15.75 73.1875 C14.87730469 72.54490234 14.00460937 71.90230469 13.10546875 71.24023438 C12.26113281 70.61826172 11.41679687 69.99628906 10.546875 69.35546875 C9.77182617 68.78465576 8.99677734 68.21384277 8.19824219 67.62573242 C6 66 6 66 4.02832031 64.2277832 C2.04233129 62.76761412 2.04233129 62.76761412 -0.46850586 63.11938477 C-3.26276149 64.09140522 -5.15510156 65.29576271 -7.50390625 67.08984375 C-8.32697266 67.70923828 -9.15003906 68.32863281 -9.99804688 68.96679688 C-11.26745117 69.94229492 -11.26745117 69.94229492 -12.5625 70.9375 C-14.24925234 72.22014792 -15.93798301 73.50019938 -17.62890625 74.77734375 C-18.7437439 75.63187134 -18.7437439 75.63187134 -19.88110352 76.50366211 C-21.86024192 77.90130461 -23.80471643 78.98476282 -26 80 C-24.25366992 73.04531704 -22.14310783 66.23640063 -19.875 59.4375 C-19.60929199 58.63973145 -19.34358398 57.84196289 -19.06982422 57.02001953 C-17.13512855 51.2702571 -17.13512855 51.2702571 -16 49 C-16.51949219 48.76925781 -17.03898437 48.53851562 -17.57421875 48.30078125 C-20.85459499 46.54173892 -23.80688184 44.37018955 -26.8125 42.1875 C-27.40353516 41.76146484 -27.99457031 41.33542969 -28.60351562 40.89648438 C-29.79514126 40.03752631 -30.98541662 39.17669185 -32.17431641 38.31396484 C-33.44598696 37.39872936 -34.72491456 36.49352871 -36.00927734 35.59619141 C-37.68910902 34.42035151 -39.34675866 33.21294147 -41 32 C-41 31.67 -41 31.34 -41 31 C-30.77 31 -20.54 31 -10 31 C-9.01 27.37 -8.02 23.74 -7 20 C-5.97743955 16.616902 -4.94241891 13.24353806 -3.875 9.875 C-3.61074219 9.02679688 -3.34648437 8.17859375 -3.07421875 7.3046875 C-2.69330078 6.098125 -2.69330078 6.098125 -2.3046875 4.8671875 C-2.07765137 4.14644043 -1.85061523 3.42569336 -1.61669922 2.68310547 C-1 1 -1 1 0 0 Z " fill="#F9C803" transform="translate(369,489)"/>
<path d="M0 0 C0.66 0 1.32 0 2 0 C3.28545488 3.94981082 4.56710386 7.90083381 5.84521484 11.85302734 C6.28068891 13.19776866 6.71720755 14.54217217 7.15478516 15.88623047 C7.78301527 17.81650666 8.40749754 19.74796046 9.03125 21.6796875 C9.59682617 23.42354736 9.59682617 23.42354736 10.17382812 25.20263672 C11 28 11 28 11 30 C21.23 30 31.46 30 42 30 C36.36773137 35.63226863 36.36773137 35.63226863 32.8984375 38.078125 C32.16109375 38.59890625 31.42375 39.1196875 30.6640625 39.65625 C29.90867187 40.1821875 29.15328125 40.708125 28.375 41.25 C27.2303125 42.06210938 27.2303125 42.06210938 26.0625 42.890625 C20.39360119 46.8687996 20.39360119 46.8687996 17 48 C17.30292969 48.7528125 17.60585938 49.505625 17.91796875 50.28125 C20.44585618 56.6904169 22.7788287 63.12531307 24.875 69.6875 C25.1021167 70.38230469 25.3292334 71.07710938 25.56323242 71.79296875 C27.11908343 76.76183313 27.11908343 76.76183313 26 79 C22.91645852 76.72944919 19.83320344 74.45850979 16.75 72.1875 C15.87730469 71.54490234 15.00460937 70.90230469 14.10546875 70.24023438 C13.26113281 69.61826172 12.41679688 68.99628906 11.546875 68.35546875 C10.77182617 67.78465576 9.99677734 67.21384277 9.19824219 66.62573242 C7 65 7 65 5.02832031 63.2277832 C3.04233129 61.76761412 3.04233129 61.76761412 0.53149414 62.11938477 C-2.26276149 63.09140522 -4.15510156 64.29576271 -6.50390625 66.08984375 C-7.32697266 66.70923828 -8.15003906 67.32863281 -8.99804688 67.96679688 C-10.26745117 68.94229492 -10.26745117 68.94229492 -11.5625 69.9375 C-13.24925234 71.22014792 -14.93798301 72.50019938 -16.62890625 73.77734375 C-17.7437439 74.63187134 -17.7437439 74.63187134 -18.88110352 75.50366211 C-20.86024192 76.90130461 -22.80471643 77.98476282 -25 79 C-23.25366992 72.04531704 -21.14310783 65.23640063 -18.875 58.4375 C-18.60929199 57.63973145 -18.34358398 56.84196289 -18.06982422 56.02001953 C-16.13512855 50.2702571 -16.13512855 50.2702571 -15 48 C-15.57814453 47.72526855 -16.15628906 47.45053711 -16.75195312 47.16748047 C-20.57384867 45.18265157 -23.99039761 42.60972699 -27.5 40.125 C-28.25925781 39.59519531 -29.01851562 39.06539062 -29.80078125 38.51953125 C-30.90486328 37.74029297 -30.90486328 37.74029297 -32.03125 36.9453125 C-32.69705078 36.47625488 -33.36285156 36.00719727 -34.04882812 35.52392578 C-36 34 -36 34 -40 30 C-29.77 30 -19.54 30 -9 30 C-8.01 26.04 -7.02 22.08 -6 18 C-4.97234252 14.72949882 -3.92786363 11.48868549 -2.8125 8.25 C-2.53986328 7.445625 -2.26722656 6.64125 -1.98632812 5.8125 C-1.32847081 3.87355213 -0.66488224 1.9365502 0 0 Z " fill="#FAC902" transform="translate(599,90)"/>
</svg>
