<?xml version="1.0" encoding="UTF-8"?>
<svg version="1.1" xmlns="http://www.w3.org/2000/svg" width="512" height="512">
<path d="M0 0 C1.01790619 0.00215515 2.03581238 0.0043103 3.08456421 0.00653076 C17.69363523 0.05620146 32.02575853 0.30709809 46.375 3.3125 C47.34985352 3.51117676 48.32470703 3.70985352 49.32910156 3.91455078 C86.24061921 11.63577862 120.90178362 25.97314294 151.375 48.3125 C152.2424585 48.94454346 152.2424585 48.94454346 153.12744141 49.58935547 C160.37723416 54.90780842 167.10620794 60.63229802 173.65625 66.78125 C175.95412963 68.92065518 178.29158807 70.9726899 180.6875 73 C183.94952617 75.83245894 186.76563412 78.88522849 189.55078125 82.18359375 C190.78419972 83.62302216 192.05413567 85.03182121 193.35546875 86.41015625 C205.65985595 99.47656379 215.47661398 114.78779807 224.375 130.3125 C224.80409668 131.06080078 225.23319336 131.80910156 225.67529297 132.58007812 C238.71070917 155.62033667 247.38567422 180.84839856 252.6875 206.75 C252.83485596 207.46889404 252.98221191 208.18778809 253.1340332 208.9284668 C256.10789088 224.57475609 256.74800362 240.04818046 256.6875 255.9375 C256.68534485 256.95540619 256.6831897 257.97331238 256.68096924 259.02206421 C256.63129854 273.63113523 256.38040191 287.96325853 253.375 302.3125 C253.07698486 303.77478027 253.07698486 303.77478027 252.77294922 305.26660156 C245.05172138 342.17811921 230.71435706 376.83928362 208.375 407.3125 C207.9536377 407.89080566 207.53227539 408.46911133 207.09814453 409.06494141 C201.77969158 416.31473416 196.05520198 423.04370794 189.90625 429.59375 C187.76684482 431.89162963 185.7148101 434.22908807 183.6875 436.625 C180.85504106 439.88702617 177.80227151 442.70313412 174.50390625 445.48828125 C173.06447784 446.72169972 171.65567879 447.99163567 170.27734375 449.29296875 C157.21093621 461.59735595 141.89970193 471.41411398 126.375 480.3125 C125.62669922 480.74159668 124.87839844 481.17069336 124.10742188 481.61279297 C101.06716333 494.64820917 75.83910144 503.32317422 49.9375 508.625 C49.21860596 508.77235596 48.49971191 508.91971191 47.7590332 509.0715332 C32.11274391 512.04539088 16.63931954 512.68550362 0.75 512.625 C-0.77685928 512.62176727 -0.77685928 512.62176727 -2.33456421 512.61846924 C-16.94363523 512.56879854 -31.27575853 512.31790191 -45.625 509.3125 C-47.08728027 509.01448486 -47.08728027 509.01448486 -48.57910156 508.71044922 C-85.49061921 500.98922138 -120.15178362 486.65185706 -150.625 464.3125 C-151.20330566 463.8911377 -151.78161133 463.46977539 -152.37744141 463.03564453 C-159.62723416 457.71719158 -166.35620794 451.99270198 -172.90625 445.84375 C-175.20412963 443.70434482 -177.54158807 441.6523101 -179.9375 439.625 C-183.19952617 436.79254106 -186.01563412 433.73977151 -188.80078125 430.44140625 C-190.03419972 429.00197784 -191.30413567 427.59317879 -192.60546875 426.21484375 C-204.90985595 413.14843621 -214.72661398 397.83720193 -223.625 382.3125 C-224.26864502 381.19004883 -224.26864502 381.19004883 -224.92529297 380.04492188 C-237.96070917 357.00466333 -246.63567422 331.77660144 -251.9375 305.875 C-252.08485596 305.15610596 -252.23221191 304.43721191 -252.3840332 303.6965332 C-255.35789088 288.05024391 -255.99800362 272.57681954 -255.9375 256.6875 C-255.93534485 255.66959381 -255.9331897 254.65168762 -255.93096924 253.60293579 C-255.88129854 238.99386477 -255.63040191 224.66174147 -252.625 210.3125 C-252.42632324 209.33764648 -252.22764648 208.36279297 -252.02294922 207.35839844 C-244.30172138 170.44688079 -229.96435706 135.78571638 -207.625 105.3125 C-206.99295654 104.4450415 -206.99295654 104.4450415 -206.34814453 103.56005859 C-201.02969158 96.31026584 -195.30520198 89.58129206 -189.15625 83.03125 C-187.01684482 80.73337037 -184.9648101 78.39591193 -182.9375 76 C-180.10504106 72.73797383 -177.05227151 69.92186588 -173.75390625 67.13671875 C-172.31447784 65.90330028 -170.90567879 64.63336433 -169.52734375 63.33203125 C-156.46093621 51.02764405 -141.14970193 41.21088602 -125.625 32.3125 C-124.87669922 31.88340332 -124.12839844 31.45430664 -123.35742188 31.01220703 C-100.31716333 17.97679083 -75.08910144 9.30182578 -49.1875 4 C-48.46860596 3.85264404 -47.74971191 3.70528809 -47.0090332 3.5534668 C-31.36274391 0.57960912 -15.88931954 -0.06050362 0 0 Z " fill="#D42A2A" transform="translate(255.625,-0.3125)"/>
<path d="M0 0 C0.8036499 0.00087616 1.6072998 0.00175232 2.43530273 0.00265503 C24.8177637 0.0826082 45.20654266 3.44589086 66.1875 11.375 C66.1875 12.035 66.1875 12.695 66.1875 13.375 C64.44339844 13.43107422 64.44339844 13.43107422 62.6640625 13.48828125 C42.30959489 14.27114539 20.94397799 17.04910465 2.1875 25.375 C1.28257812 25.73207031 0.37765625 26.08914062 -0.5546875 26.45703125 C-39.57444039 41.93038153 -70.73276121 72.35819796 -87.68408203 110.65917969 C-95.68785441 129.50386913 -98.93092848 147.52714531 -99.0625 167.9375 C-99.07676025 169.7481897 -99.07676025 169.7481897 -99.09130859 171.59545898 C-99.04710535 183.65230241 -97.71001298 195.24524972 -93.8125 206.6875 C-93.3628186 208.01744995 -93.3628186 208.01744995 -92.90405273 209.37426758 C-88.29963178 222.31413839 -81.03343087 234.19605034 -71.8125 244.375 C-71.00425781 245.27605469 -70.19601563 246.17710937 -69.36328125 247.10546875 C-53.80135763 263.57611784 -31.60678583 274.78059526 -8.87890625 275.75390625 C4.01353029 276.06414536 16.03805463 275.97989468 28.1875 271.375 C29.24517578 271.05208984 29.24517578 271.05208984 30.32421875 270.72265625 C43.28984046 266.56387193 54.44135929 258.66230178 64.1875 249.375 C65.00992188 248.59511719 65.83234375 247.81523437 66.6796875 247.01171875 C73.42959116 240.06328851 77.77512044 231.90500046 82.1875 223.375 C82.94740234 221.96927734 82.94740234 221.96927734 83.72265625 220.53515625 C94.79147747 198.56676185 93.93110482 170.33087874 86.53808594 147.35693359 C78.05196139 123.22644699 60.33133807 108.15081546 38 97.25 C30.3227339 93.7756168 22.30185032 91.57121937 14.1875 89.375 C13.22494521 72.22726465 17.78276655 54.49904 29.1875 41.375 C29.72117187 40.72273438 30.25484375 40.07046875 30.8046875 39.3984375 C35.1579691 34.20258526 39.99164393 29.71738512 45.1875 25.375 C45.71601563 24.91222656 46.24453125 24.44945313 46.7890625 23.97265625 C50.64326002 20.87941568 55.04347311 18.93417476 59.5625 17 C60.17496582 16.72462402 60.78743164 16.44924805 61.41845703 16.16552734 C67.344074 13.76502076 72.53082261 14.03631278 78.51757812 16.22802734 C80.98021049 17.31828704 83.36260627 18.50372672 85.75 19.75 C86.6147998 20.19263184 87.47959961 20.63526367 88.37060547 21.09130859 C133.62623756 44.82119618 164.89680504 85.79227023 180.0078125 134.01171875 C184.83327633 149.81287482 185.43393102 164.82689483 185.5 181.25 C185.50412903 182.09029755 185.50825806 182.93059509 185.51251221 183.7963562 C185.57756126 213.05591954 178.96359697 240.58283347 165.1875 266.375 C164.86378418 266.98375977 164.54006836 267.59251953 164.20654297 268.21972656 C155.29353586 284.81323547 143.96179874 301.55556101 129.1875 313.375 C128.445 314.1175 127.7025 314.86 126.9375 315.625 C110.28067913 332.28182087 88.51370627 345.80372866 66.1875 353.375 C64.83277126 353.86955679 63.47863903 354.36574959 62.125 354.86328125 C45.81807437 360.72204602 28.3555919 364.47020882 10.98046875 364.578125 C10.22162384 364.58513931 9.46277893 364.59215363 8.68093872 364.59938049 C6.24556478 364.61678869 3.81043388 364.62323261 1.375 364.625 C0.12787735 364.62601212 0.12787735 364.62601212 -1.1444397 364.62704468 C-13.25789421 364.61140196 -24.99911142 364.3150721 -36.8125 361.375 C-37.56966309 361.18744141 -38.32682617 360.99988281 -39.10693359 360.80664062 C-43.70599952 359.63724225 -48.2600484 358.34881345 -52.80224609 356.97607422 C-54.62809643 356.43013743 -56.46402517 355.91819517 -58.30078125 355.41015625 C-66.91433226 352.95965883 -74.83683419 349.38002184 -82.8125 345.375 C-83.905625 344.8284375 -84.99875 344.281875 -86.125 343.71875 C-111.53367743 330.51620192 -132.79614165 311.29074534 -149.8125 288.375 C-150.74642578 287.15103516 -150.74642578 287.15103516 -151.69921875 285.90234375 C-161.49943336 272.58410339 -169.51061891 257.01140711 -174.8125 241.375 C-175.1425 240.43269531 -175.4725 239.49039063 -175.8125 238.51953125 C-180.65660273 223.89261168 -183.92425579 207.63971212 -184.015625 192.23046875 C-184.02132507 191.46180984 -184.02702515 190.69315094 -184.03289795 189.90119934 C-184.04230054 188.27667594 -184.04886295 186.65213388 -184.05273438 185.02758789 C-184.06232284 182.60721887 -184.09334121 180.18774423 -184.125 177.76757812 C-184.27075758 156.09197573 -180.0612351 133.24004096 -170.8046875 113.54296875 C-169.74503139 111.22757844 -168.84171403 108.88010058 -167.9375 106.5 C-162.52651707 92.90962428 -154.05451332 80.63702784 -144.8125 69.375 C-144.4004834 68.86743164 -143.9884668 68.35986328 -143.56396484 67.83691406 C-130.08942845 51.32036248 -114.45551467 36.87194668 -95.8125 26.375 C-94.68585938 25.715 -93.55921875 25.055 -92.3984375 24.375 C-86.02618837 20.64875964 -79.68497997 17.10234638 -72.8125 14.375 C-71.73613281 13.92640625 -70.65976563 13.4778125 -69.55078125 13.015625 C-61.44832799 9.73603505 -53.2200122 7.27562805 -44.75 5.125 C-43.79407959 4.8789502 -42.83815918 4.63290039 -41.85327148 4.37939453 C-27.94393812 0.97230738 -14.25146293 -0.03824879 0 0 Z " fill="#FEFDFD" transform="translate(255.8125,73.625)"/>
<path d="M0 0 C1.01790619 0.00215515 2.03581238 0.0043103 3.08456421 0.00653076 C17.69363523 0.05620146 32.02575853 0.30709809 46.375 3.3125 C47.34985352 3.51117676 48.32470703 3.70985352 49.32910156 3.91455078 C86.24061921 11.63577862 120.90178362 25.97314294 151.375 48.3125 C152.2424585 48.94454346 152.2424585 48.94454346 153.12744141 49.58935547 C160.37723416 54.90780842 167.10620794 60.63229802 173.65625 66.78125 C175.95412963 68.92065518 178.29158807 70.9726899 180.6875 73 C183.94952617 75.83245894 186.76563412 78.88522849 189.55078125 82.18359375 C190.78419972 83.62302216 192.05413567 85.03182121 193.35546875 86.41015625 C205.65985595 99.47656379 215.47661398 114.78779807 224.375 130.3125 C224.80409668 131.06080078 225.23319336 131.80910156 225.67529297 132.58007812 C238.71070917 155.62033667 247.38567422 180.84839856 252.6875 206.75 C252.83485596 207.46889404 252.98221191 208.18778809 253.1340332 208.9284668 C256.10789088 224.57475609 256.74800362 240.04818046 256.6875 255.9375 C256.68534485 256.95540619 256.6831897 257.97331238 256.68096924 259.02206421 C256.63129854 273.63113523 256.38040191 287.96325853 253.375 302.3125 C253.07698486 303.77478027 253.07698486 303.77478027 252.77294922 305.26660156 C245.05172138 342.17811921 230.71435706 376.83928362 208.375 407.3125 C207.9536377 407.89080566 207.53227539 408.46911133 207.09814453 409.06494141 C201.77969158 416.31473416 196.05520198 423.04370794 189.90625 429.59375 C187.76684482 431.89162963 185.7148101 434.22908807 183.6875 436.625 C180.85504106 439.88702617 177.80227151 442.70313412 174.50390625 445.48828125 C173.06447784 446.72169972 171.65567879 447.99163567 170.27734375 449.29296875 C157.21093621 461.59735595 141.89970193 471.41411398 126.375 480.3125 C125.62669922 480.74159668 124.87839844 481.17069336 124.10742188 481.61279297 C101.06716333 494.64820917 75.83910144 503.32317422 49.9375 508.625 C49.21860596 508.77235596 48.49971191 508.91971191 47.7590332 509.0715332 C32.11274391 512.04539088 16.63931954 512.68550362 0.75 512.625 C-0.77685928 512.62176727 -0.77685928 512.62176727 -2.33456421 512.61846924 C-16.94363523 512.56879854 -31.27575853 512.31790191 -45.625 509.3125 C-47.08728027 509.01448486 -47.08728027 509.01448486 -48.57910156 508.71044922 C-85.49061921 500.98922138 -120.15178362 486.65185706 -150.625 464.3125 C-151.20330566 463.8911377 -151.78161133 463.46977539 -152.37744141 463.03564453 C-159.62723416 457.71719158 -166.35620794 451.99270198 -172.90625 445.84375 C-175.20412963 443.70434482 -177.54158807 441.6523101 -179.9375 439.625 C-183.19952617 436.79254106 -186.01563412 433.73977151 -188.80078125 430.44140625 C-190.03419972 429.00197784 -191.30413567 427.59317879 -192.60546875 426.21484375 C-197.68200756 420.82391092 -202.09941237 415.12044397 -206.4375 409.125 C-206.98873535 408.36461426 -207.5399707 407.60422852 -208.10791016 406.82080078 C-211.23275615 402.44601639 -214.04476681 398.02939118 -216.625 393.3125 C-215.965 392.6525 -215.305 391.9925 -214.625 391.3125 C-214.625 392.3025 -214.625 393.2925 -214.625 394.3125 C-213.965 394.3125 -213.305 394.3125 -212.625 394.3125 C-212.625 395.3025 -212.625 396.2925 -212.625 397.3125 C-211.965 397.3125 -211.305 397.3125 -210.625 397.3125 C-210.625 398.3025 -210.625 399.2925 -210.625 400.3125 C-209.965 400.3125 -209.305 400.3125 -208.625 400.3125 C-208.295 401.6325 -207.965 402.9525 -207.625 404.3125 C-206.965 404.3125 -206.305 404.3125 -205.625 404.3125 C-203.8984375 406.4296875 -203.8984375 406.4296875 -202 409.1875 C-201.05253906 410.54488281 -201.05253906 410.54488281 -200.0859375 411.9296875 C-198.625 414.3125 -198.625 414.3125 -198.625 416.3125 C-197.635 416.6425 -196.645 416.9725 -195.625 417.3125 C-194.10488374 419.00910916 -192.65484854 420.76928036 -191.25 422.5625 C-187.05226867 427.89982163 -182.54727136 432.59515637 -177.4375 437.0625 C-176.42623047 437.95195313 -176.42623047 437.95195313 -175.39453125 438.859375 C-173.67831968 440.37834716 -173.67831968 440.37834716 -171.625 441.3125 C-171.625 442.3025 -171.625 443.2925 -171.625 444.3125 C-171.0475 444.580625 -170.47 444.84875 -169.875 445.125 C-167.56949957 446.34179189 -165.60443808 447.61583879 -163.625 449.3125 C-163.625 449.9725 -163.625 450.6325 -163.625 451.3125 C-162.95597656 451.52132813 -162.28695312 451.73015625 -161.59765625 451.9453125 C-157.58597434 453.79036988 -154.48836551 456.43060228 -151.0625 459.1875 C-102.114227 497.52629511 -35.00351307 514.86753884 26.47119141 507.96484375 C53.59126479 504.65663643 82.91686545 499.04460382 106.97265625 485.44140625 C109.76022874 484.13147381 112.33164799 483.69678393 115.375 483.3125 C115.375 482.6525 115.375 481.9925 115.375 481.3125 C116.64191507 480.63841692 117.91370749 479.97349503 119.1875 479.3125 C119.89519531 478.94125 120.60289062 478.57 121.33203125 478.1875 C123.375 477.3125 123.375 477.3125 126.375 477.3125 C126.375 476.6525 126.375 475.9925 126.375 475.3125 C128.45452998 473.98209816 130.53500126 472.76508875 132.6875 471.5625 C146.14126939 463.75294993 158.63197336 454.40961793 169.890625 443.6796875 C171.97537017 441.69327937 174.09921785 439.8383046 176.3125 438 C184.80237149 430.62908647 192.55589454 421.90872279 199.10546875 412.7890625 C199.52441406 412.30179687 199.94335938 411.81453125 200.375 411.3125 C201.035 411.3125 201.695 411.3125 202.375 411.3125 C202.705 409.9925 203.035 408.6725 203.375 407.3125 C204.035 407.3125 204.695 407.3125 205.375 407.3125 C205.4471875 406.79171875 205.519375 406.2709375 205.59375 405.734375 C206.71368298 402.26258276 208.80473341 399.52408865 210.875 396.5625 C216.20546471 388.72549324 220.96590605 380.70080592 225.375 372.3125 C225.77187012 371.56355469 226.16874023 370.81460937 226.57763672 370.04296875 C237.40129692 349.33160945 245.34947761 326.35275844 249.375 303.3125 C249.51486328 302.54437988 249.65472656 301.77625977 249.79882812 300.98486328 C254.98264272 272.20074479 257.87904416 235.74318017 249.375 207.3125 C248.89442139 206.7043042 248.41384277 206.0961084 247.91870117 205.46948242 C246.24377666 203.12914428 245.66898757 201.38128337 245.015625 198.59375 C244.67845459 197.21074707 244.67845459 197.21074707 244.33447266 195.79980469 C243.98328369 194.32108887 243.98328369 194.32108887 243.625 192.8125 C240.8498896 181.70856551 237.4570928 171.00162419 233.375 160.3125 C233.07899902 159.52955566 232.78299805 158.74661133 232.47802734 157.93994141 C225.34439386 139.32928982 215.4794014 122.12866693 203.375 106.3125 C202.94364746 105.73983398 202.51229492 105.16716797 202.06787109 104.57714844 C195.34278438 95.66438292 188.11236946 87.35762032 180.375 79.3125 C179.90562012 78.82120605 179.43624023 78.32991211 178.95263672 77.82373047 C171.64208241 70.20590242 163.83832116 63.49421097 155.4609375 57.08203125 C154.54570312 56.37433594 153.63046875 55.66664062 152.6875 54.9375 C151.85863281 54.31101563 151.02976562 53.68453125 150.17578125 53.0390625 C149.58152344 52.46929687 148.98726563 51.89953125 148.375 51.3125 C148.375 50.3225 148.375 49.3325 148.375 48.3125 C147.385 48.3125 146.395 48.3125 145.375 48.3125 C145.375 47.6525 145.375 46.9925 145.375 46.3125 C144.385 46.3125 143.395 46.3125 142.375 46.3125 C142.375 45.6525 142.375 44.9925 142.375 44.3125 C141.385 44.3125 140.395 44.3125 139.375 44.3125 C139.375 43.6525 139.375 42.9925 139.375 42.3125 C138.694375 42.415625 138.01375 42.51875 137.3125 42.625 C133.64097745 42.2344125 132.02000754 40.83561985 129.15625 38.625 C126.72625404 36.83447666 124.10660402 35.57836528 121.375 34.3125 C121.375 33.6525 121.375 32.9925 121.375 32.3125 C120.76011719 32.11914062 120.14523437 31.92578125 119.51171875 31.7265625 C118.70347656 31.46617188 117.89523437 31.20578125 117.0625 30.9375 C116.26199219 30.68226562 115.46148437 30.42703125 114.63671875 30.1640625 C112.375 29.3125 112.375 29.3125 109.375 27.3125 C107.95104966 26.79445331 106.51156112 26.31797723 105.0625 25.875 C100.39985801 24.36872442 96.12190606 22.69974893 92.25 19.625 C90.21030025 17.93019177 90.21030025 17.93019177 86.375 18.3125 C84.86859878 17.91546268 83.37763486 17.4574305 81.90234375 16.95703125 C66.90115291 12.03939071 51.9576119 8.78934209 36.375 6.3125 C35.20469238 6.11333984 35.20469238 6.11333984 34.01074219 5.91015625 C1.4370802 0.46847457 -32.58059045 5.00940867 -64.625 11.3125 C-65.52065674 11.48185059 -66.41631348 11.65120117 -67.33911133 11.82568359 C-68.22236084 11.99535645 -69.10561035 12.1650293 -70.015625 12.33984375 C-71.20526855 12.56595337 -71.20526855 12.56595337 -72.41894531 12.79663086 C-75.72244878 13.56913007 -78.55603646 14.86828186 -81.625 16.3125 C-82.470625 16.6425 -83.31625 16.9725 -84.1875 17.3125 C-86.75036072 18.3167658 -86.75036072 18.3167658 -89.5625 19.875 C-92.625 21.3125 -92.625 21.3125 -95.625 21.75 C-99.35642241 22.4496417 -101.5155078 24.17472411 -104.625 26.3125 C-105.53636719 26.60640625 -106.44773438 26.9003125 -107.38671875 27.203125 C-111.01065447 28.44461806 -114.16025023 30.18114552 -117.4375 32.125 C-118.67543887 32.8482426 -119.91372003 33.57089965 -121.15234375 34.29296875 C-121.74772949 34.64149902 -122.34311523 34.9900293 -122.95654297 35.34912109 C-125.11215165 36.59378481 -127.30436074 37.76521956 -129.5 38.9375 C-133.07712461 40.91381194 -136.2731799 43.19132511 -139.50390625 45.6875 C-141.9666352 47.57423157 -144.47231531 49.3887459 -147 51.1875 C-147.83273438 51.78304687 -148.66546875 52.37859375 -149.5234375 52.9921875 C-151.625 54.3125 -151.625 54.3125 -153.625 54.3125 C-153.955 55.3025 -154.285 56.2925 -154.625 57.3125 C-155.32625 57.725 -156.0275 58.1375 -156.75 58.5625 C-159.95265301 60.51194096 -162.16399674 62.76409857 -164.7578125 65.44140625 C-166.54252245 67.22984991 -168.38672225 68.86588568 -170.3125 70.5 C-179.69414519 78.62712286 -187.98166302 87.54270935 -195.625 97.3125 C-196.20507812 98.02535156 -196.78515625 98.73820312 -197.3828125 99.47265625 C-206.80722841 111.19838302 -214.54693273 124.07071039 -221.625 137.3125 C-221.96772949 137.94736328 -222.31045898 138.58222656 -222.66357422 139.23632812 C-234.14158602 160.66488055 -242.16640527 184.19534891 -246.33300781 208.13110352 C-246.70464973 210.20302819 -247.1571107 212.26016738 -247.625 214.3125 C-248.285 214.6425 -248.945 214.9725 -249.625 215.3125 C-252.77690175 228.67193679 -252.92333417 242.40870951 -252.9375 256.0625 C-252.94090393 256.83170776 -252.94430786 257.60091553 -252.94781494 258.39343262 C-252.98726167 273.99357619 -251.54702402 289.27512438 -248.375 304.5625 C-248.16464111 305.60172607 -247.95428223 306.64095215 -247.73754883 307.71166992 C-246.00247012 316.0411838 -243.87489959 324.23878326 -241.50488281 332.40917969 C-241.25963867 333.2602832 -241.01439453 334.11138672 -240.76171875 334.98828125 C-240.54217529 335.72989502 -240.32263184 336.47150879 -240.09643555 337.2355957 C-239.625 339.3125 -239.625 339.3125 -239.625 343.3125 C-238.965 343.3125 -238.305 343.3125 -237.625 343.3125 C-237.295 346.2825 -236.965 349.2525 -236.625 352.3125 C-239.52186317 350.86406842 -239.58280472 349.11691483 -240.61328125 346.08203125 C-240.98759277 344.98020508 -241.3619043 343.87837891 -241.74755859 342.74316406 C-242.14023926 341.54916992 -242.53291992 340.35517578 -242.9375 339.125 C-243.54198975 337.28953613 -243.54198975 337.28953613 -244.15869141 335.41699219 C-247.68432463 324.4922149 -250.51788053 313.59265507 -252.625 302.3125 C-252.78726074 301.50748047 -252.94952148 300.70246094 -253.11669922 299.87304688 C-258.58955505 271.88184616 -258.4709259 238.22377604 -252.625 210.3125 C-252.42632324 209.33764648 -252.22764648 208.36279297 -252.02294922 207.35839844 C-244.30172138 170.44688079 -229.96435706 135.78571638 -207.625 105.3125 C-206.99295654 104.4450415 -206.99295654 104.4450415 -206.34814453 103.56005859 C-201.02969158 96.31026584 -195.30520198 89.58129206 -189.15625 83.03125 C-187.01684482 80.73337037 -184.9648101 78.39591193 -182.9375 76 C-180.10504106 72.73797383 -177.05227151 69.92186588 -173.75390625 67.13671875 C-172.31447784 65.90330028 -170.90567879 64.63336433 -169.52734375 63.33203125 C-156.46093621 51.02764405 -141.14970193 41.21088602 -125.625 32.3125 C-124.87669922 31.88340332 -124.12839844 31.45430664 -123.35742188 31.01220703 C-100.31716333 17.97679083 -75.08910144 9.30182578 -49.1875 4 C-48.46860596 3.85264404 -47.74971191 3.70528809 -47.0090332 3.5534668 C-31.36274391 0.57960912 -15.88931954 -0.06050362 0 0 Z " fill="#C62525" transform="translate(255.625,-0.3125)"/>
<path d="M0 0 C0.66 0 1.32 0 2 0 C8.29870616 21.18081951 13.09302702 42.94857265 13.203125 65.1328125 C13.21018463 66.07916061 13.21724426 67.02550873 13.22451782 68.00053406 C13.45241099 107.51652112 13.45241099 107.51652112 10 124 C9.70198486 125.46228027 9.70198486 125.46228027 9.39794922 126.95410156 C1.67672138 163.86561921 -12.66064294 198.52678362 -35 229 C-35.4213623 229.57830566 -35.84272461 230.15661133 -36.27685547 230.75244141 C-41.59530842 238.00223416 -47.31979802 244.73120794 -53.46875 251.28125 C-55.60815518 253.57912963 -57.6601899 255.91658807 -59.6875 258.3125 C-62.51995894 261.57452617 -65.57272849 264.39063412 -68.87109375 267.17578125 C-70.31052216 268.40919972 -71.71932121 269.67913567 -73.09765625 270.98046875 C-86.16406379 283.28485595 -101.47529807 293.10161398 -117 302 C-117.74830078 302.42909668 -118.49660156 302.85819336 -119.26757812 303.30029297 C-142.30783667 316.33570917 -167.53589856 325.01067422 -193.4375 330.3125 C-194.15639404 330.45985596 -194.87528809 330.60721191 -195.6159668 330.7590332 C-211.26225609 333.73289088 -226.73568046 334.37300362 -242.625 334.3125 C-243.64290619 334.31034485 -244.66081238 334.3081897 -245.70956421 334.30596924 C-260.31863523 334.25629854 -274.65075853 334.00540191 -289 331 C-290.46228027 330.70198486 -290.46228027 330.70198486 -291.95410156 330.39794922 C-328.86561921 322.67672138 -363.52678362 308.33935706 -394 286 C-394.57830566 285.5786377 -395.15661133 285.15727539 -395.75244141 284.72314453 C-403.00223416 279.40469158 -409.73120794 273.68020198 -416.28125 267.53125 C-418.57912963 265.39184482 -420.91658807 263.3398101 -423.3125 261.3125 C-426.57452617 258.48004106 -429.39063412 255.42727151 -432.17578125 252.12890625 C-433.40919972 250.68947784 -434.67913567 249.28067879 -435.98046875 247.90234375 C-441.05700756 242.51141092 -445.47441237 236.80794397 -449.8125 230.8125 C-450.36373535 230.05211426 -450.9149707 229.29172852 -451.48291016 228.50830078 C-454.60775615 224.13351639 -457.41976681 219.71689118 -460 215 C-459.01 214.01 -459.01 214.01 -458 213 C-458 213.99 -458 214.98 -458 216 C-457.34 216 -456.68 216 -456 216 C-456 216.99 -456 217.98 -456 219 C-455.34 219 -454.68 219 -454 219 C-454 219.99 -454 220.98 -454 222 C-453.34 222 -452.68 222 -452 222 C-451.67 223.32 -451.34 224.64 -451 226 C-450.34 226 -449.68 226 -449 226 C-447.2734375 228.1171875 -447.2734375 228.1171875 -445.375 230.875 C-444.74335938 231.77992188 -444.11171875 232.68484375 -443.4609375 233.6171875 C-442 236 -442 236 -442 238 C-441.01 238.33 -440.02 238.66 -439 239 C-437.47988374 240.69660916 -436.02984854 242.45678036 -434.625 244.25 C-430.42726867 249.58732163 -425.92227136 254.28265637 -420.8125 258.75 C-419.80123047 259.63945313 -419.80123047 259.63945313 -418.76953125 260.546875 C-417.05331968 262.06584716 -417.05331968 262.06584716 -415 263 C-415 263.99 -415 264.98 -415 266 C-414.4225 266.268125 -413.845 266.53625 -413.25 266.8125 C-410.94449957 268.02929189 -408.97943808 269.30333879 -407 271 C-407 271.66 -407 272.32 -407 273 C-406.33097656 273.20882813 -405.66195312 273.41765625 -404.97265625 273.6328125 C-400.96097434 275.47786988 -397.86336551 278.11810228 -394.4375 280.875 C-345.489227 319.21379511 -278.37851307 336.55503884 -216.90380859 329.65234375 C-189.78373521 326.34413643 -160.45813455 320.73210382 -136.40234375 307.12890625 C-133.61477126 305.81897381 -131.04335201 305.38428393 -128 305 C-128 304.34 -128 303.68 -128 303 C-126.73308493 302.32591692 -125.46129251 301.66099503 -124.1875 301 C-123.47980469 300.62875 -122.77210938 300.2575 -122.04296875 299.875 C-120 299 -120 299 -117 299 C-117 298.34 -117 297.68 -117 297 C-114.92047002 295.66959816 -112.83999874 294.45258875 -110.6875 293.25 C-97.23373061 285.44044993 -84.74302664 276.09711793 -73.484375 265.3671875 C-71.39962983 263.38077937 -69.27578215 261.5258046 -67.0625 259.6875 C-58.57262851 252.31658647 -50.81910546 243.59622279 -44.26953125 234.4765625 C-43.85058594 233.98929688 -43.43164062 233.50203125 -43 233 C-42.34 233 -41.68 233 -41 233 C-40.67 231.68 -40.34 230.36 -40 229 C-39.34 229 -38.68 229 -38 229 C-37.9278125 228.47921875 -37.855625 227.9584375 -37.78125 227.421875 C-36.66131702 223.95008276 -34.57026659 221.21158865 -32.5 218.25 C-27.16953529 210.41299324 -22.40909395 202.38830592 -18 194 C-17.60312988 193.25105469 -17.20625977 192.50210938 -16.79736328 191.73046875 C-5.97370308 171.01910945 1.97447761 148.04025844 6 125 C6.13986328 124.23187988 6.27972656 123.46375977 6.42382812 122.67236328 C13.25924719 84.71739621 11.59306466 44.49063923 0.56616211 7.48144531 C-0.02131354 4.90658437 -0.10097076 2.63171592 0 0 Z " fill="#B31A1A" transform="translate(499,178)"/>
<path d="M0 0 C0 3.31582118 -0.47351595 4.07457221 -2.25 6.75 C-4.66161342 10.41207964 -6.85786236 14.17572262 -9 18 C-9.36158203 18.64533691 -9.72316406 19.29067383 -10.09570312 19.95556641 C-21.83204663 41.13267328 -31.35273508 63.47104681 -36.32421875 87.23046875 C-37 90 -37 90 -37.99121094 92.34741211 C-39.01222273 95.03213939 -39.46609114 97.36640988 -39.81640625 100.2109375 C-39.94080078 101.20996094 -40.06519531 102.20898438 -40.19335938 103.23828125 C-40.31517578 104.27339844 -40.43699219 105.30851562 -40.5625 106.375 C-40.68818359 107.37144531 -40.81386719 108.36789063 -40.94335938 109.39453125 C-45.67805269 148.31321455 -42.78681399 185.4961225 -31.87988281 223.09667969 C-31.63463867 223.9477832 -31.38939453 224.79888672 -31.13671875 225.67578125 C-30.80740356 226.7882019 -30.80740356 226.7882019 -30.47143555 227.9230957 C-30 230 -30 230 -30 234 C-29.34 234 -28.68 234 -28 234 C-27.67 236.97 -27.34 239.94 -27 243 C-29.89686317 241.55156842 -29.95780472 239.80441483 -30.98828125 236.76953125 C-31.36259277 235.66770508 -31.7369043 234.56587891 -32.12255859 233.43066406 C-32.51523926 232.23666992 -32.90791992 231.04267578 -33.3125 229.8125 C-33.71549316 228.58885742 -34.11848633 227.36521484 -34.53369141 226.10449219 C-38.05932463 215.1797149 -40.89288053 204.28015507 -43 193 C-43.16226074 192.19498047 -43.32452148 191.38996094 -43.49169922 190.56054688 C-48.96455505 162.56934616 -48.8459259 128.91127604 -43 101 C-42.80132324 100.02514648 -42.60264648 99.05029297 -42.39794922 98.04589844 C-35.70332932 66.04210504 -23.92722578 23.92722578 0 0 Z " fill="#BB1E1E" transform="translate(46,109)"/>
<path d="M0 0 C0.495 0.99 0.495 0.99 1 2 C0.02804687 1.93941406 -0.94390625 1.87882813 -1.9453125 1.81640625 C-4.9174633 1.63332969 -7.89012248 1.46273118 -10.86328125 1.296875 C-14.25910828 1.10695324 -17.65060315 0.8841996 -21.04296875 0.640625 C-42.15820803 -0.75171935 -62.96961513 0.94942823 -83.68359375 5.1953125 C-86.84299298 5.83190284 -89.76156925 6.19949265 -93 6 C-92.67 5.34 -92.34 4.68 -92 4 C-89.01396993 3.22235636 -86.08941584 2.57268981 -83.0625 2 C-82.14791016 1.82629883 -81.23332031 1.65259766 -80.29101562 1.47363281 C-77.53028491 0.96376813 -74.76663304 0.47670586 -72 0 C-71.2972998 -0.12439453 -70.59459961 -0.24878906 -69.87060547 -0.37695312 C-48.46694956 -3.98109786 -21.23202504 -4.85132307 0 0 Z " fill="#D63636" transform="translate(292,5)"/>
<path d="M0 0 C0.99 0.495 0.99 0.495 2 1 C-17.64237228 26.43940478 -44.08705057 52.98499075 -74 66 C-74 65.34 -74 64.68 -74 64 C-71.92047002 62.66959816 -69.83999874 61.45258875 -67.6875 60.25 C-54.23373061 52.44044993 -41.74302664 43.09711793 -30.484375 32.3671875 C-28.39962983 30.38077937 -26.27578215 28.5258046 -24.0625 26.6875 C-15.08448647 18.89278114 -6.98209241 9.59720338 0 0 Z " fill="#BC1B1B" transform="translate(456,411)"/>
<path d="M0 0 C0 4.04389931 -1.566855 5.49188276 -3.9375 8.75 C-7.45154589 13.67036776 -10.72238415 18.67760134 -13.8125 23.875 C-14.3528186 24.78330566 -14.3528186 24.78330566 -14.90405273 25.70996094 C-17.31061082 29.7831986 -19.66013945 33.88815517 -22 38 C-22.66 37.67 -23.32 37.34 -24 37 C-19.61443261 28.34538996 -15.12367533 19.83910724 -9.75 11.75 C-9.35055176 11.14341553 -8.95110352 10.53683105 -8.53955078 9.91186523 C-5.99952154 6.16697728 -3.2726601 3.08697726 0 0 Z " fill="#D53333" transform="translate(55,104)"/>
<path d="M0 0 C0.66 0.33 1.32 0.66 2 1 C-6.58 9.58 -15.16 18.16 -24 27 C-24.66 26.67 -25.32 26.34 -26 26 C-9.36764706 7.83823529 -9.36764706 7.83823529 0 0 Z " fill="#DD4C4C" transform="translate(215,122)"/>
</svg>
